<?xml version="1.0" encoding="UTF-8" standalone="no"?>
<!DOCTYPE svg PUBLIC "-//W3C//DTD SVG 1.1//EN"
 "http://www.w3.org/Graphics/SVG/1.1/DTD/svg11.dtd">
<!-- Generated by graphviz version 2.40.1 (20161225.0304)
 -->
<!-- Title: G Pages: 1 -->
<svg width="660pt" height="740pt"
 viewBox="0.00 0.00 659.67 740.00" xmlns="http://www.w3.org/2000/svg" xmlns:xlink="http://www.w3.org/1999/xlink">
<g id="graph0" class="graph" transform="scale(1 1) rotate(0) translate(4 736)">
<title>G</title>
<polygon fill="#ffffff" stroke="transparent" points="-4,4 -4,-736 655.6678,-736 655.6678,4 -4,4"/>
<g id="clust1" class="cluster">
<title>cluster_Global</title>
<path fill="none" stroke="#c0c0c0" d="M422.6678,-8C422.6678,-8 631.6678,-8 631.6678,-8 637.6678,-8 643.6678,-14 643.6678,-20 643.6678,-20 643.6678,-712 643.6678,-712 643.6678,-718 637.6678,-724 631.6678,-724 631.6678,-724 422.6678,-724 422.6678,-724 416.6678,-724 410.6678,-718 410.6678,-712 410.6678,-712 410.6678,-20 410.6678,-20 410.6678,-14 416.6678,-8 422.6678,-8"/>
<text text-anchor="middle" x="527.1678" y="-711.2" font-family="Times,serif" font-size="11.00" fill="#c0c0c0">Global</text>
</g>
<g id="clust2" class="cluster">
<title>cluster_\Anax</title>
<path fill="none" stroke="#c0c0c0" d="M430.6678,-346C430.6678,-346 623.6678,-346 623.6678,-346 629.6678,-346 635.6678,-352 635.6678,-358 635.6678,-358 635.6678,-684 635.6678,-684 635.6678,-690 629.6678,-696 623.6678,-696 623.6678,-696 430.6678,-696 430.6678,-696 424.6678,-696 418.6678,-690 418.6678,-684 418.6678,-684 418.6678,-358 418.6678,-358 418.6678,-352 424.6678,-346 430.6678,-346"/>
<text text-anchor="middle" x="527.1678" y="-683.2" font-family="Times,serif" font-size="11.00" fill="#c0c0c0">Anax</text>
</g>
<g id="clust3" class="cluster">
<title>cluster_\Anax\Controller</title>
<path fill="none" stroke="#c0c0c0" d="M438.6678,-434C438.6678,-434 615.6678,-434 615.6678,-434 621.6678,-434 627.6678,-440 627.6678,-446 627.6678,-446 627.6678,-656 627.6678,-656 627.6678,-662 621.6678,-668 615.6678,-668 615.6678,-668 438.6678,-668 438.6678,-668 432.6678,-668 426.6678,-662 426.6678,-656 426.6678,-656 426.6678,-446 426.6678,-446 426.6678,-440 432.6678,-434 438.6678,-434"/>
<text text-anchor="middle" x="527.1678" y="-655.2" font-family="Times,serif" font-size="11.00" fill="#c0c0c0">Controller</text>
</g>
<g id="clust4" class="cluster">
<title>cluster_\Anax\Page</title>
<path fill="none" stroke="#c0c0c0" d="M504.1678,-354C504.1678,-354 550.1678,-354 550.1678,-354 556.1678,-354 562.1678,-360 562.1678,-366 562.1678,-366 562.1678,-414 562.1678,-414 562.1678,-420 556.1678,-426 550.1678,-426 550.1678,-426 504.1678,-426 504.1678,-426 498.1678,-426 492.1678,-420 492.1678,-414 492.1678,-414 492.1678,-366 492.1678,-366 492.1678,-360 498.1678,-354 504.1678,-354"/>
<text text-anchor="middle" x="527.1678" y="-413.2" font-family="Times,serif" font-size="11.00" fill="#c0c0c0">Page</text>
</g>
<g id="clust5" class="cluster">
<title>cluster_\Anna</title>
<path fill="none" stroke="#c0c0c0" d="M467.6678,-16C467.6678,-16 586.6678,-16 586.6678,-16 592.6678,-16 598.6678,-22 598.6678,-28 598.6678,-28 598.6678,-326 598.6678,-326 598.6678,-332 592.6678,-338 586.6678,-338 586.6678,-338 467.6678,-338 467.6678,-338 461.6678,-338 455.6678,-332 455.6678,-326 455.6678,-326 455.6678,-28 455.6678,-28 455.6678,-22 461.6678,-16 467.6678,-16"/>
<text text-anchor="middle" x="527.1678" y="-325.2" font-family="Times,serif" font-size="11.00" fill="#c0c0c0">Anna</text>
</g>
<g id="clust6" class="cluster">
<title>cluster_\Anna\Result</title>
<path fill="none" stroke="#c0c0c0" d="M502.6678,-238C502.6678,-238 551.6678,-238 551.6678,-238 557.6678,-238 563.6678,-244 563.6678,-250 563.6678,-250 563.6678,-298 563.6678,-298 563.6678,-304 557.6678,-310 551.6678,-310 551.6678,-310 502.6678,-310 502.6678,-310 496.6678,-310 490.6678,-304 490.6678,-298 490.6678,-298 490.6678,-250 490.6678,-250 490.6678,-244 496.6678,-238 502.6678,-238"/>
<text text-anchor="middle" x="527.1678" y="-297.2" font-family="Times,serif" font-size="11.00" fill="#c0c0c0">Result</text>
</g>
<g id="clust7" class="cluster">
<title>cluster_\Anna\Guess</title>
<path fill="none" stroke="#c0c0c0" d="M475.6678,-104C475.6678,-104 578.6678,-104 578.6678,-104 584.6678,-104 590.6678,-110 590.6678,-116 590.6678,-116 590.6678,-218 590.6678,-218 590.6678,-224 584.6678,-230 578.6678,-230 578.6678,-230 475.6678,-230 475.6678,-230 469.6678,-230 463.6678,-224 463.6678,-218 463.6678,-218 463.6678,-116 463.6678,-116 463.6678,-110 469.6678,-104 475.6678,-104"/>
<text text-anchor="middle" x="527.1678" y="-217.2" font-family="Times,serif" font-size="11.00" fill="#c0c0c0">Guess</text>
</g>
<g id="clust8" class="cluster">
<title>cluster_\Anna\Form</title>
<path fill="none" stroke="#c0c0c0" d="M504.1678,-24C504.1678,-24 550.1678,-24 550.1678,-24 556.1678,-24 562.1678,-30 562.1678,-36 562.1678,-36 562.1678,-84 562.1678,-84 562.1678,-90 556.1678,-96 550.1678,-96 550.1678,-96 504.1678,-96 504.1678,-96 498.1678,-96 492.1678,-90 492.1678,-84 492.1678,-84 492.1678,-36 492.1678,-36 492.1678,-30 498.1678,-24 504.1678,-24"/>
<text text-anchor="middle" x="527.1678" y="-83.2" font-family="Times,serif" font-size="11.00" fill="#c0c0c0">Form</text>
</g>
<!-- \\Anax\\Controller\\DevelopmentController -->
<g id="node1" class="node">
<title>\\Anax\\Controller\\DevelopmentController</title>
<polygon fill="none" stroke="#000000" points="606.1678,-640 448.1678,-640 448.1678,-604 606.1678,-604 606.1678,-640"/>
<text text-anchor="middle" x="527.1678" y="-619.2" font-family="Courier,monospace" font-size="11.00" fill="#000000">DevelopmentController</text>
</g>
<!-- \\Anax\\Commons\\ContainerInjectableInterface -->
<g id="node10" class="node">
<title>\\Anax\\Commons\\ContainerInjectableInterface</title>
<ellipse fill="none" stroke="#000000" cx="181.3339" cy="-514" rx="181.168" ry="18"/>
<text text-anchor="middle" x="181.3339" y="-510.3" font-family="Times,serif" font-size="14.00" fill="#c0c0c0">\Anax\Commons\ContainerInjectableInterface</text>
</g>
<!-- \\Anax\\Controller\\DevelopmentController&#45;&gt;\\Anax\\Commons\\ContainerInjectableInterface -->
<g id="edge1" class="edge">
<title>\\Anax\\Controller\\DevelopmentController&#45;&gt;\\Anax\\Commons\\ContainerInjectableInterface</title>
<path fill="none" stroke="#000000" stroke-dasharray="1,5" d="M447.8977,-604.8845C435.3801,-601.8211 422.6272,-598.486 410.6678,-595 349.9245,-577.2941 281.7201,-552.5649 235.5995,-535.1002"/>
<polygon fill="none" stroke="#000000" points="236.6947,-531.7722 226.1037,-531.4888 234.2064,-538.315 236.6947,-531.7722"/>
</g>
<!-- \\Anax\\Controller\\FlatFileContentController -->
<g id="node2" class="node">
<title>\\Anax\\Controller\\FlatFileContentController</title>
<polygon fill="none" stroke="#000000" points="619.6678,-586 434.6678,-586 434.6678,-550 619.6678,-550 619.6678,-586"/>
<text text-anchor="middle" x="527.1678" y="-565.2" font-family="Courier,monospace" font-size="11.00" fill="#000000">FlatFileContentController</text>
</g>
<!-- \\Anax\\Controller\\FlatFileContentController&#45;&gt;\\Anax\\Commons\\ContainerInjectableInterface -->
<g id="edge4" class="edge">
<title>\\Anax\\Controller\\FlatFileContentController&#45;&gt;\\Anax\\Commons\\ContainerInjectableInterface</title>
<path fill="none" stroke="#000000" stroke-dasharray="1,5" d="M434.4907,-553.529C389.6612,-546.5291 335.5864,-538.0856 288.9432,-530.8026"/>
<polygon fill="none" stroke="#000000" points="289.2228,-527.3039 278.8025,-529.2192 288.1428,-534.2201 289.2228,-527.3039"/>
</g>
<!-- \\Anax\\Controller\\ErrorHandlerController -->
<g id="node3" class="node">
<title>\\Anax\\Controller\\ErrorHandlerController</title>
<polygon fill="none" stroke="#000000" points="609.6678,-532 444.6678,-532 444.6678,-496 609.6678,-496 609.6678,-532"/>
<text text-anchor="middle" x="527.1678" y="-511.2" font-family="Courier,monospace" font-size="11.00" fill="#000000">ErrorHandlerController</text>
</g>
<!-- \\Anax\\Controller\\ErrorHandlerController&#45;&gt;\\Anax\\Commons\\ContainerInjectableInterface -->
<g id="edge5" class="edge">
<title>\\Anax\\Controller\\ErrorHandlerController&#45;&gt;\\Anax\\Commons\\ContainerInjectableInterface</title>
<path fill="none" stroke="#000000" stroke-dasharray="1,5" d="M444.332,-514C422.4571,-514 397.9137,-514 372.8429,-514"/>
<polygon fill="none" stroke="#000000" points="372.8361,-510.5001 362.8361,-514 372.836,-517.5001 372.8361,-510.5001"/>
</g>
<!-- \\Anax\\Controller\\SampleController -->
<g id="node4" class="node">
<title>\\Anax\\Controller\\SampleController</title>
<polygon fill="none" stroke="#000000" points="589.6678,-478 464.6678,-478 464.6678,-442 589.6678,-442 589.6678,-478"/>
<text text-anchor="middle" x="527.1678" y="-457.2" font-family="Courier,monospace" font-size="11.00" fill="#000000">SampleController</text>
</g>
<!-- \\Anax\\Controller\\SampleController&#45;&gt;\\Anax\\Commons\\ContainerInjectableInterface -->
<g id="edge6" class="edge">
<title>\\Anax\\Controller\\SampleController&#45;&gt;\\Anax\\Commons\\ContainerInjectableInterface</title>
<path fill="none" stroke="#000000" stroke-dasharray="1,5" d="M464.5399,-469.779C415.595,-477.4215 346.4169,-488.2232 288.6849,-497.2378"/>
<polygon fill="none" stroke="#000000" points="288.1266,-493.7824 278.7863,-498.7834 289.2066,-500.6986 288.1266,-493.7824"/>
</g>
<!-- \\Anax\\Page\\Page -->
<g id="node5" class="node">
<title>\\Anax\\Page\\Page</title>
<polygon fill="none" stroke="#000000" points="554.1678,-398 500.1678,-398 500.1678,-362 554.1678,-362 554.1678,-398"/>
<text text-anchor="middle" x="527.1678" y="-377.2" font-family="Courier,monospace" font-size="11.00" fill="#000000">Page</text>
</g>
<!-- \\Anax\\Page\\Page&#45;&gt;\\Anax\\Commons\\ContainerInjectableInterface -->
<g id="edge2" class="edge">
<title>\\Anax\\Page\\Page&#45;&gt;\\Anax\\Commons\\ContainerInjectableInterface</title>
<path fill="none" stroke="#000000" stroke-dasharray="1,5" d="M500.0308,-390.5148C443.3415,-412.4801 311.3987,-463.6039 236.2657,-492.7156"/>
<polygon fill="none" stroke="#000000" points="234.5612,-489.6224 226.5013,-496.499 237.0904,-496.1496 234.5612,-489.6224"/>
</g>
<!-- \\Anna\\Result\\Result -->
<g id="node6" class="node">
<title>\\Anna\\Result\\Result</title>
<polygon fill="none" stroke="#000000" points="555.6678,-282 498.6678,-282 498.6678,-246 555.6678,-246 555.6678,-282"/>
<text text-anchor="middle" x="527.1678" y="-261.2" font-family="Courier,monospace" font-size="11.00" fill="#000000">Result</text>
</g>
<!-- \\Anna\\Guess\\GuessException -->
<g id="node7" class="node">
<title>\\Anna\\Guess\\GuessException</title>
<polygon fill="none" stroke="#000000" points="582.6678,-202 471.6678,-202 471.6678,-166 582.6678,-166 582.6678,-202"/>
<text text-anchor="middle" x="527.1678" y="-181.2" font-family="Courier,monospace" font-size="11.00" fill="#000000">GuessException</text>
</g>
<!-- \\Exception -->
<g id="node11" class="node">
<title>\\Exception</title>
<ellipse fill="none" stroke="#000000" cx="181.3339" cy="-184" rx="51.1914" ry="18"/>
<text text-anchor="middle" x="181.3339" y="-180.3" font-family="Times,serif" font-size="14.00" fill="#c0c0c0">\Exception</text>
</g>
<!-- \\Anna\\Guess\\GuessException&#45;&gt;\\Exception -->
<g id="edge3" class="edge">
<title>\\Anna\\Guess\\GuessException&#45;&gt;\\Exception</title>
<path fill="none" stroke="#000000" d="M471.6036,-184C409.0758,-184 307.7851,-184 242.8981,-184"/>
<polygon fill="none" stroke="#000000" points="242.8082,-180.5001 232.8082,-184 242.8081,-187.5001 242.8082,-180.5001"/>
</g>
<!-- \\Anna\\Guess\\Guess -->
<g id="node8" class="node">
<title>\\Anna\\Guess\\Guess</title>
<polygon fill="none" stroke="#000000" points="554.1678,-148 500.1678,-148 500.1678,-112 554.1678,-112 554.1678,-148"/>
<text text-anchor="middle" x="527.1678" y="-127.2" font-family="Courier,monospace" font-size="11.00" fill="#000000">Guess</text>
</g>
<!-- \\Anna\\Form\\Form -->
<g id="node9" class="node">
<title>\\Anna\\Form\\Form</title>
<polygon fill="none" stroke="#000000" points="554.1678,-68 500.1678,-68 500.1678,-32 554.1678,-32 554.1678,-68"/>
<text text-anchor="middle" x="527.1678" y="-47.2" font-family="Courier,monospace" font-size="11.00" fill="#000000">Form</text>
</g>
</g>
</svg>
